<svg xmlns="http://www.w3.org/2000/svg" xmlns:xlink="http://www.w3.org/1999/xlink" width="500" zoomAndPan="magnify" viewBox="0 0 375 374.999991" height="500" preserveAspectRatio="xMidYMid meet" version="1.0"><defs><clipPath id="c3ea1d1d8f"><path d="M 0 94.433594 L 375 94.433594 L 375 280.433594 L 0 280.433594 Z M 0 94.433594 " clip-rule="nonzero"/></clipPath><clipPath id="8d0c11db7c"><path d="M 159 148.636719 L 188 148.636719 L 188 179 L 159 179 Z M 159 148.636719 " clip-rule="nonzero"/></clipPath><clipPath id="65e8e38b09"><path d="M 199 148.636719 L 201 148.636719 L 201 149 L 199 149 Z M 199 148.636719 " clip-rule="nonzero"/></clipPath><clipPath id="a49cbd6e0d"><path d="M 179 148.636719 L 188 148.636719 L 188 149 L 179 149 Z M 179 148.636719 " clip-rule="nonzero"/></clipPath><clipPath id="81aaea17a6"><path d="M 179 148.636719 L 217 148.636719 L 217 179 L 179 179 Z M 179 148.636719 " clip-rule="nonzero"/></clipPath><clipPath id="3c4e659bbe"><path d="M 183 186 L 224 186 L 224 226.636719 L 183 226.636719 Z M 183 186 " clip-rule="nonzero"/></clipPath></defs><g clip-path="url(#c3ea1d1d8f)"><path fill="#16a34a" d="M 374.792969 187.5 C 374.792969 239.015625 332.871094 280.78125 281.152344 280.78125 C 267.988281 280.78125 255.46875 278.070312 244.101562 273.1875 C 256.074219 265.316406 266.304688 255.03125 274.085938 243.03125 C 276.394531 243.316406 278.757812 243.46875 281.152344 243.46875 C 312.183594 243.46875 337.339844 218.414062 337.339844 187.5 C 337.339844 159.765625 317.089844 136.753906 290.515625 132.308594 L 290.515625 94.679688 C 337.835938 99.367188 374.792969 139.132812 374.792969 187.5 Z M 84.5 242.691406 C 57.925781 238.246094 37.675781 215.234375 37.675781 187.5 C 37.675781 156.585938 62.832031 131.53125 93.863281 131.53125 C 96.257812 131.53125 98.609375 131.683594 100.929688 131.96875 C 108.714844 119.960938 118.941406 109.683594 130.914062 101.8125 C 119.546875 96.929688 107.027344 94.21875 93.863281 94.21875 C 42.144531 94.21875 0.21875 135.984375 0.21875 187.5 C 0.21875 235.867188 37.179688 275.640625 84.5 280.320312 Z M 281.152344 131.53125 L 262.425781 131.53125 C 274.175781 147.125 281.152344 166.503906 281.152344 187.5 C 281.152344 239.015625 239.226562 280.78125 187.507812 280.78125 L 93.863281 280.78125 L 93.863281 243.46875 L 112.589844 243.46875 C 100.828125 227.875 93.863281 208.503906 93.863281 187.5 C 93.863281 135.984375 135.789062 94.21875 187.507812 94.21875 L 281.152344 94.21875 Z M 243.695312 187.5 C 243.695312 156.585938 218.539062 131.53125 187.507812 131.53125 C 156.472656 131.53125 131.320312 156.585938 131.320312 187.5 C 131.320312 218.414062 156.472656 243.46875 187.507812 243.46875 C 218.535156 243.46875 243.695312 218.414062 243.695312 187.5 Z M 243.695312 187.5 " fill-opacity="1" fill-rule="nonzero"/></g><g clip-path="url(#8d0c11db7c)"><path fill="#4c5270" d="M 177.398438 148.886719 C 169.492188 149.328125 159.863281 170.21875 159.863281 170.21875 L 171.699219 170.546875 L 178.667969 178.917969 L 187.695312 161.523438 L 187.785156 161.433594 C 184.300781 155.761719 180.269531 149.199219 179.984375 148.773438 C 179.09375 148.804688 178.226562 148.839844 177.398438 148.886719 " fill-opacity="1" fill-rule="nonzero"/></g><g clip-path="url(#65e8e38b09)"><path fill="#4c5270" d="M 200.101562 148.886719 C 200.101562 148.886719 200.003906 148.882812 199.824219 148.878906 C 199.914062 148.882812 200.003906 148.890625 200.09375 148.894531 L 200.101562 148.886719 " fill-opacity="1" fill-rule="nonzero"/></g><g clip-path="url(#a49cbd6e0d)"><path fill="#4c5270" d="M 179.992188 148.773438 C 180.132812 148.769531 183.578125 148.6875 187.757812 148.664062 C 185.179688 148.660156 182.488281 148.6875 179.992188 148.773438 " fill-opacity="1" fill-rule="nonzero"/></g><g clip-path="url(#81aaea17a6)"><path fill="#50b07d" d="M 208.148438 161.890625 C 208.148438 161.890625 206.367188 149.4375 200.523438 148.929688 C 200.386719 148.917969 200.242188 148.90625 200.09375 148.894531 C 200.003906 148.890625 199.914062 148.882812 199.824219 148.878906 C 196.753906 148.664062 191.898438 148.636719 187.757812 148.664062 C 183.578125 148.6875 180.132812 148.769531 179.992188 148.773438 L 179.984375 148.773438 C 180.269531 149.199219 184.300781 155.761719 187.785156 161.433594 C 190.511719 165.871094 192.898438 169.769531 192.898438 169.769531 L 181.972656 176.375 L 208.65625 178.917969 L 216.53125 157.316406 L 208.148438 161.890625 " fill-opacity="1" fill-rule="nonzero"/></g><path fill="#4c5270" d="M 180.929688 208.417969 L 185.433594 198.675781 L 165.855469 199.410156 L 165.730469 199.375 C 162.515625 205.207031 158.804688 211.953125 158.570312 212.414062 C 159.039062 213.171875 159.5 213.90625 159.945312 214.605469 C 164.234375 221.261719 187.15625 219.320312 187.15625 219.320312 L 180.929688 208.417969 " fill-opacity="1" fill-rule="nonzero"/><path fill="#4c5270" d="M 148.738281 194.859375 C 148.738281 194.859375 148.785156 194.945312 148.867188 195.105469 C 148.828125 195.023438 148.789062 194.945312 148.753906 194.863281 L 148.738281 194.859375 " fill-opacity="1" fill-rule="nonzero"/><path fill="#4c5270" d="M 158.566406 212.40625 C 158.5 212.292969 156.726562 209.332031 154.636719 205.707031 C 155.90625 207.949219 157.261719 210.277344 158.566406 212.40625 " fill-opacity="1" fill-rule="nonzero"/><path fill="#50b07d" d="M 170.453125 190.816406 L 181.59375 197.054688 L 170.632812 172.597656 L 147.960938 176.410156 L 156.078125 181.445312 C 156.078125 181.445312 146.125 189.140625 148.570312 194.472656 C 148.628906 194.597656 148.6875 194.730469 148.753906 194.863281 C 148.789062 194.945312 148.828125 195.023438 148.867188 195.105469 C 150.199219 197.882812 152.574219 202.117188 154.636719 205.707031 C 156.726562 209.332031 158.5 212.292969 158.566406 212.40625 L 158.570312 212.414062 C 158.804688 211.953125 162.515625 205.207031 165.730469 199.375 C 168.246094 194.816406 170.453125 190.816406 170.453125 190.816406 " fill-opacity="1" fill-rule="nonzero"/><path fill="#4c5270" d="M 216.015625 171.226562 L 209.945312 180.621094 L 198.820312 182.78125 L 208.996094 199.527344 L 209.027344 199.652344 C 215.6875 199.621094 223.386719 199.578125 223.898438 199.558594 C 224.335938 198.78125 224.753906 198.019531 225.144531 197.289062 C 228.871094 190.300781 216.015625 171.226562 216.015625 171.226562 " fill-opacity="1" fill-rule="nonzero"/><path fill="#4c5270" d="M 223.898438 199.5625 C 223.832031 199.675781 222.109375 202.664062 219.957031 206.257812 C 221.300781 204.054688 222.671875 201.742188 223.898438 199.5625 " fill-opacity="1" fill-rule="nonzero"/><path fill="#4c5270" d="M 213.355469 216.691406 C 213.355469 216.691406 213.410156 216.609375 213.511719 216.460938 C 213.457031 216.535156 213.40625 216.605469 213.351562 216.679688 L 213.355469 216.691406 " fill-opacity="1" fill-rule="nonzero"/><g clip-path="url(#3c4e659bbe)"><path fill="#50b07d" d="M 199.25 199.695312 L 199.277344 186.925781 L 183.25 208.410156 L 197.621094 226.355469 L 198.066406 216.816406 C 198.066406 216.816406 209.632812 221.761719 213.101562 217.027344 C 213.183594 216.917969 213.265625 216.800781 213.351562 216.679688 C 213.40625 216.609375 213.457031 216.535156 213.507812 216.460938 C 215.285156 213.945312 217.832031 209.808594 219.957031 206.257812 C 222.109375 202.664062 223.832031 199.675781 223.898438 199.5625 L 223.902344 199.558594 L 223.898438 199.558594 C 223.386719 199.578125 215.6875 199.621094 209.027344 199.652344 C 203.820312 199.675781 199.25 199.695312 199.25 199.695312 " fill-opacity="1" fill-rule="nonzero"/></g></svg>